<?xml version="1.0" encoding="UTF-8" standalone="no"?>
<svg
   xmlns:dc="http://purl.org/dc/elements/1.1/"
   xmlns:cc="http://creativecommons.org/ns#"
   xmlns:rdf="http://www.w3.org/1999/02/22-rdf-syntax-ns#"
   xmlns:svg="http://www.w3.org/2000/svg"
   xmlns="http://www.w3.org/2000/svg"
   xmlns:sodipodi="http://sodipodi.sourceforge.net/DTD/sodipodi-0.dtd"
   xmlns:inkscape="http://www.inkscape.org/namespaces/inkscape"
   version="1.1"
   width="256"
   height="256"
   viewBox="0 0 256 256"
   xml:space="preserve"
   id="svg10"
   sodipodi:docname="black-gameplay-symbol-20172.svg"
   inkscape:version="1.0.2-2 (e86c870879, 2021-01-15)"><metadata
   id="metadata14"><rdf:RDF><cc:Work
       rdf:about=""><dc:format>image/svg+xml</dc:format><dc:type
         rdf:resource="http://purl.org/dc/dcmitype/StillImage" /><dc:title></dc:title></cc:Work></rdf:RDF></metadata><sodipodi:namedview
   pagecolor="#ffffff"
   bordercolor="#666666"
   borderopacity="1"
   objecttolerance="10"
   gridtolerance="10"
   guidetolerance="10"
   inkscape:pageopacity="0"
   inkscape:pageshadow="2"
   inkscape:window-width="1920"
   inkscape:window-height="1009"
   id="namedview12"
   showgrid="false"
   inkscape:zoom="3.9375"
   inkscape:cx="128"
   inkscape:cy="128"
   inkscape:window-x="-8"
   inkscape:window-y="-8"
   inkscape:window-maximized="1"
   inkscape:current-layer="svg10" />

<defs
   id="defs2">
</defs>
<g
   style="stroke:none;stroke-width:0;stroke-dasharray:none;stroke-linecap:butt;stroke-linejoin:miter;stroke-miterlimit:10;fill:#ffff00;fill-rule:nonzero;opacity:1"
   transform="translate(1.4065934065934016 1.4065934065934016) scale(2.81 2.81)"
   id="g8">
	<path
   d="M 45 0 C 26.359 0 11.248 15.111 11.248 33.752 c 0 6.953 2.111 13.408 5.715 18.777 c 3.341 -1.833 7.159 -2.897 11.193 -2.897 h 34.087 c 3.819 0 7.562 0.981 10.873 2.781 c 3.556 -5.346 5.636 -11.759 5.636 -18.661 C 78.752 15.111 63.641 0 45 0 z M 37.004 45.514 V 19.945 L 59.132 32.73 L 37.004 45.514 z"
   style="stroke:none;stroke-width:1;stroke-dasharray:none;stroke-linecap:butt;stroke-linejoin:miter;stroke-miterlimit:10;fill:#ffff00;fill-rule:nonzero;opacity:1"
   transform=" matrix(1 0 0 1 0 0) "
   stroke-linecap="round"
   id="path4" />
	<path
   d="M 62.242 54.746 H 28.156 c -9.189 0 -17.147 6.872 -17.954 16.025 C 9.279 81.227 17.494 90 27.758 90 c 4.051 0 7.782 -1.367 10.758 -3.665 c 3.844 -2.969 9.166 -2.914 13.021 0.04 c 2.987 2.289 6.729 3.643 10.788 3.625 c 9.231 -0.042 17.023 -7.437 17.518 -16.654 C 80.39 63.169 72.3 54.746 62.242 54.746 z M 38.379 75.413 h -6.47 v 6.47 h -6.08 v -6.47 h -6.47 v -6.08 h 6.47 v -6.47 h 6.08 v 6.47 h 6.47 V 75.413 z M 53.078 75.406 c -1.67 0 -3.025 -1.354 -3.025 -3.025 c 0 -1.67 1.354 -3.025 3.025 -3.025 c 1.67 0 3.025 1.354 3.025 3.025 C 56.103 74.052 54.748 75.406 53.078 75.406 z M 60.347 81.883 c -1.67 0 -3.025 -1.354 -3.025 -3.025 c 0 -1.67 1.354 -3.025 3.025 -3.025 s 3.025 1.354 3.025 3.025 C 63.372 80.528 62.018 81.883 60.347 81.883 z M 60.347 68.929 c -1.67 0 -3.025 -1.354 -3.025 -3.025 c 0 -1.67 1.354 -3.025 3.025 -3.025 s 3.025 1.354 3.025 3.025 C 63.372 67.575 62.018 68.929 60.347 68.929 z M 67.617 75.406 c -1.67 0 -3.025 -1.354 -3.025 -3.025 c 0 -1.67 1.354 -3.025 3.025 -3.025 c 1.67 0 3.025 1.354 3.025 3.025 C 70.641 74.052 69.287 75.406 67.617 75.406 z"
   style="stroke:none;stroke-width:1;stroke-dasharray:none;stroke-linecap:butt;stroke-linejoin:miter;stroke-miterlimit:10;fill:#ffff00;fill-rule:nonzero;opacity:1"
   transform=" matrix(1 0 0 1 0 0) "
   stroke-linecap="round"
   id="path6" />
</g>
<path
   style="font-variation-settings:normal;opacity:1;vector-effect:none;fill:#00ff00;fill-opacity:1;stroke:none;stroke-width:0.0901476;stroke-linecap:butt;stroke-linejoin:miter;stroke-miterlimit:4;stroke-dasharray:none;stroke-dashoffset:0;stroke-opacity:1;stop-color:#000000;stop-opacity:1"
   d="M 126.22371,1.5267857 C 114.28424,1.268053 102.43078,4.0586357 91.414707,8.5310959 66.316366,18.794139 46.226437,40.408211 37.767361,66.165178 c -3.534643,10.412216 -5.121328,21.443104 -4.738764,32.429517 0.143435,13.584325 3.591479,27.084535 9.469657,39.304695 1.891643,3.91132 4.103435,7.65924 6.493313,11.28513 7.82042,-3.98436 16.268761,-7.10194 25.075397,-7.77281 20.895096,-0.36701 41.797066,-0.13417 62.694936,-0.20439 15.64007,0.0846 31.28774,-0.1788 46.92262,0.25796 7.88949,0.86481 15.50754,3.46605 22.56994,7.03472 1.10678,0.67454 1.47678,-1.25436 2.09127,-1.81151 10.00664,-16.00841 15.21818,-35.05639 14.27728,-53.943947 C 222.37881,78.261775 218.27449,63.939286 211.49306,51.183035 205.25877,39.506634 196.37974,29.332996 186.02514,21.133517 171.77979,10.093211 154.31445,3.1661592 136.34019,1.69147 132.97172,1.505952 129.596,1.5251422 126.22371,1.5267857 Z M 105.56845,57.803076 c 20.4556,11.712843 40.88369,23.489567 61.2252,35.391367 -4.80991,3.4067 -10.12116,6.141318 -15.17667,9.198447 -15.39318,8.9316 -30.81524,17.81333 -46.22015,26.72467 0.0381,-23.77967 -0.0931,-47.561568 0.11855,-71.339782 z"
   id="path839" /><path
   style="font-variation-settings:normal;opacity:1;vector-effect:none;fill:#241c1c;fill-opacity:1;stroke:none;stroke-width:0.0901476;stroke-linecap:butt;stroke-linejoin:miter;stroke-miterlimit:4;stroke-dasharray:none;stroke-dashoffset:0;stroke-opacity:1;stop-color:#000000;stop-opacity:1"
   d="m 118.92609,155.04812 c -14.32818,0.0841 -28.66575,-0.0962 -42.987527,0.3016 -14.840166,1.25994 -29.004206,9.25282 -37.469909,21.55491 -11.749365,16.4359 -11.447407,40.18259 0.355954,56.50259 8.500731,11.99735 22.54983,20.18363 37.321637,20.81061 6.041496,0.1808 12.184988,-0.0212 17.95312,-2.01802 5.982065,-1.68859 11.364975,-4.88549 16.346075,-8.53215 7.08739,-5.12242 16.42763,-7.06323 24.89588,-4.68429 5.04377,1.13923 9.27437,4.1765 13.42886,7.08778 8.58237,5.81114 19.01235,8.67101 29.35326,8.24483 15.18018,-0.35349 29.76867,-8.48519 38.53126,-20.81038 9.96735,-13.59835 12.11126,-32.41935 5.44645,-47.90794 -6.11569,-14.95548 -20.01154,-26.36592 -35.87555,-29.43961 -7.21272,-1.50798 -14.62754,-0.79612 -21.93832,-1.03672 -15.12026,-0.0728 -30.24078,-0.0815 -45.36119,-0.0732 z m -36.386407,23.11061 c 2.79365,0 5.587301,0 8.380952,0 0,6.09524 0,12.19048 0,18.28571 6.095238,0 12.190475,0 18.285715,0 0,5.58731 0,11.17461 0,16.76191 -6.09524,0 -12.190477,0 -18.285715,0 0,6.09524 0,12.19048 0,18.28571 -5.587302,0 -11.174603,0 -16.761905,0 0,-6.09523 0,-12.19047 0,-18.28571 -6.095238,0 -12.190476,0 -18.285714,0 0,-5.5873 0,-11.1746 0,-16.76191 6.095238,0 12.190476,0 18.285714,0 0,-6.09523 0,-12.19047 0,-18.28571 2.793651,0 5.587302,0 8.380953,0 z m 88.768357,0.12054 c 4.40663,0.14482 8.23202,4.14157 7.9618,8.59077 -0.002,5.27419 -5.94361,9.51927 -10.92744,7.58389 -5.05997,-1.50172 -7.50791,-8.37352 -4.13357,-12.57248 1.62134,-2.23643 4.29248,-3.76165 7.09921,-3.60218 z m -20.03572,18.29662 c 4.37124,0.14652 7.98268,4.46092 7.56498,8.79911 -0.17418,5.16495 -6.04893,9.18549 -10.92769,7.28652 -4.87816,-1.47531 -7.25815,-7.83112 -4.45772,-12.12333 1.58966,-2.71125 4.67804,-4.3479 7.82043,-3.9623 z m 40.83433,0.005 c 5.32223,0.0749 9.16538,6.42128 7.04315,11.25596 -1.59936,3.89555 -6.31531,6.44404 -10.38145,4.80109 -4.68396,-1.42082 -7.14839,-7.33288 -4.70337,-11.61161 1.50269,-2.93891 4.71178,-4.86829 8.04167,-4.44544 z m -20.67808,18.19445 c 4.4941,0.0319 8.42185,4.39664 7.73661,8.89236 -0.0226,5.18456 -6.05183,9.07002 -10.84164,7.16625 -4.62751,-1.46914 -7.22427,-7.3772 -4.66332,-11.64492 1.43251,-2.90393 4.53874,-4.66426 7.76835,-4.41369 z"
   id="path841" /></svg>
